<svg width="84" height="87" viewBox="0 0 84 87" fill="none" xmlns="http://www.w3.org/2000/svg">
<path d="M13.4846 56L2.27299e-06 43L13.4846 30L18 34.3531L9.03075 43L18 51.6469L13.4846 56Z" fill="white"/>
<rect x="33" y="34" width="18" height="18" rx="9" stroke="white" stroke-width="6"/>
<rect x="39" y="40" width="6" height="6" rx="3" fill="white"/>
<path d="M45.5592 37.3332L59.8144 12.6426" stroke="white" stroke-width="2.00009"/>
<path d="M23.7395 75.1252L37.9946 50.4346" stroke="white" stroke-width="2.00009"/>
<rect x="19.8094" y="72.8562" width="9.07684" height="8.37862" transform="rotate(30 19.8094 72.8562)" stroke="white" stroke-width="2.40011"/>
<rect x="60.4222" y="2.51294" width="9.07684" height="9.07684" transform="rotate(30 60.4222 2.51294)" stroke="white" stroke-width="2.40011"/>
<path d="M70.5154 30L84 43L70.5154 56L66 51.6469L74.9692 43L66 34.3531L70.5154 30Z" fill="white"/>
</svg>
